<svg id="Layer_1" data-name="Layer 1" xmlns="http://www.w3.org/2000/svg" xmlns:xlink="http://www.w3.org/1999/xlink" viewBox="0 0 64 64"><defs><clipPath id="clip-path"><circle cx="32" cy="32" r="32" style="fill:none"/></clipPath><clipPath id="clip-path-2"><path d="M11.16,64V55.81q10.43-3.47,13.89-6.94c3.48-3.48-6.94-3.48-6.94-20.84q0-17.37,13.89-17.36T45.87,28c0,17.36-10.42,17.36-6.94,20.84q3.47,3.47,13.89,6.94V64" style="fill:none"/></clipPath></defs><circle id="Oval-2" cx="32" cy="32" r="32" style="fill:#dfe1e5"/><g style="clip-path:url(#clip-path)"><g id="Grupo_de_máscara_12" data-name="Grupo de máscara 12"><g id="colour_grey-40" data-name="colour grey-40"><rect id="Rectangle" width="64" height="64" style="fill:#dfe1e5"/></g><g id="Group"><path id="Combined_Shape-2" data-name="Combined Shape-2" d="M11.16,64V55.81q10.43-3.47,13.89-6.94c3.48-3.48-6.94-3.48-6.94-20.84q0-17.37,13.89-17.36T45.87,28c0,17.36-10.42,17.36-6.94,20.84q3.47,3.47,13.89,6.94V64" style="fill:#a5adbb"/><g style="clip-path:url(#clip-path-2)"><g id="Group-2"><g id="colour_grey-60" data-name="colour grey-60"><rect id="colour_grey-60_background" data-name="colour grey-60 background" width="64" height="64" style="fill:none"/><rect id="Rectangle-2" width="64" height="64" style="fill:#a5adbb"/></g></g></g></g></g></g></svg>