<svg id="Layer_1" data-name="Layer 1" xmlns="http://www.w3.org/2000/svg" viewBox="0 0 514.45 72.9"><g id="Display_4" data-name="Display 4" style="isolation:isolate"><g style="isolation:isolate"><path d="M97.5,259V309.5a3.35,3.35,0,0,0,.68,2.29,5,5,0,0,0,2.44,1.27v1.57H79.82v-1.57a4.94,4.94,0,0,0,2.44-1.27A3.35,3.35,0,0,0,83,309.5V259H62.24a3.33,3.33,0,0,0-2.24.67,4.93,4.93,0,0,0-1.27,2.46H57.17V244.85h1.56A5.41,5.41,0,0,0,60,247.3a3.26,3.26,0,0,0,2.22.67h55.91a3.43,3.43,0,0,0,2.3-.67,5,5,0,0,0,1.27-2.45h1.56v17.24h-1.56a5,5,0,0,0-1.27-2.46,3.43,3.43,0,0,0-2.3-.67Z" transform="translate(-57.17 -244.85)" style="fill:#383b41"/><path d="M162.27,301H137.12l-2.83,6a8.5,8.5,0,0,0-1,3.37q0,2.34,3.13,3v1.37H116.3v-1.37a5.19,5.19,0,0,0,2.75-1.13,11.89,11.89,0,0,0,2.13-3.27l20-40.43a9.34,9.34,0,0,0,1.12-4c0-1.33-.91-2.38-2.73-3.13v-1.36h21.24v1.36q-2.68,1.08-2.69,3.33a9,9,0,0,0,1.22,3.95L180,307.79a19.08,19.08,0,0,0,2.68,4.14,5.82,5.82,0,0,0,3,1.33v1.37H163.34v-1.37c2.12-.36,3.17-1.35,3.17-3a8.31,8.31,0,0,0-1.22-3.74Zm-3.94-7.66-9-17.59-8.53,17.59Z" transform="translate(-57.17 -244.85)" style="fill:#383b41"/><path d="M240.47,285.23a21.68,21.68,0,0,1,5.95,3.71,12.7,12.7,0,0,1,3.57,9.47q0,8-6.06,12.36-5.37,3.86-14.79,3.86H190.22v-1.37a4.7,4.7,0,0,0,2.42-1.27,3.53,3.53,0,0,0,.71-2.35V264.92a3.38,3.38,0,0,0-.69-2.3,5.28,5.28,0,0,0-2.44-1.32v-1.36H228.5q10.06,0,14.75,3.61a12.43,12.43,0,0,1,5,10.45,11,11,0,0,1-1.73,6.4A17.4,17.4,0,0,1,240.47,285.23Zm-34-4.78h19.88q4.68,0,6.64-1.2a4.45,4.45,0,0,0,2-4.13,4.39,4.39,0,0,0-1.93-4.07q-1.93-1.2-6.66-1.2H206.43Zm0,24.26h20.36q9.87,0,9.87-7.17t-9.87-7.18H206.43Z" transform="translate(-57.17 -244.85)" style="fill:#383b41"/><path d="M274.16,304.71h30.61a3.54,3.54,0,0,0,2.35-.67,5.18,5.18,0,0,0,1.31-2.45h1.32v16.16h-1.32a4.79,4.79,0,0,0-1.29-2.44,3.56,3.56,0,0,0-2.37-.68H258v-1.37a4.66,4.66,0,0,0,2.41-1.27,3.53,3.53,0,0,0,.71-2.35V264.92a3.43,3.43,0,0,0-.68-2.3A5.34,5.34,0,0,0,258,261.3v-1.36h19.33v1.36a4.91,4.91,0,0,0-2.44,1.3,3.47,3.47,0,0,0-.68,2.32Z" transform="translate(-57.17 -244.85)" style="fill:#383b41"/><path d="M331.58,291.38v13.33H366.3a3.54,3.54,0,0,0,2.32-.67,4.93,4.93,0,0,0,1.29-2.45h1.37v16.16h-1.37a4.63,4.63,0,0,0-1.27-2.42,3.51,3.51,0,0,0-2.34-.7H315.37v-1.37a4.74,4.74,0,0,0,2.42-1.27,3.53,3.53,0,0,0,.7-2.35V264.92a3.43,3.43,0,0,0-.68-2.3,5.34,5.34,0,0,0-2.44-1.32v-1.36h49.41a3.56,3.56,0,0,0,2.37-.69,4.79,4.79,0,0,0,1.29-2.44h1.32V273h-1.32a4.78,4.78,0,0,0-1.29-2.45,3.62,3.62,0,0,0-2.37-.67h-33.2v12h20.6a3.51,3.51,0,0,0,2.32-.68,5.16,5.16,0,0,0,1.35-2.44h1.32v15.77h-1.32a4.92,4.92,0,0,0-1.3-2.43,3.53,3.53,0,0,0-2.37-.7Z" transform="translate(-57.17 -244.85)" style="fill:#383b41"/><path d="M415.76,259V309.5a3.4,3.4,0,0,0,.68,2.29,5,5,0,0,0,2.44,1.27v1.57h-20.8v-1.57a4.94,4.94,0,0,0,2.44-1.27,3.35,3.35,0,0,0,.69-2.29V259H380.5a3.33,3.33,0,0,0-2.24.67,4.93,4.93,0,0,0-1.27,2.46h-1.56V244.85H377a5.41,5.41,0,0,0,1.29,2.45,3.26,3.26,0,0,0,2.22.67h55.91a3.43,3.43,0,0,0,2.3-.67,5,5,0,0,0,1.27-2.45h1.56v17.24H440a5,5,0,0,0-1.27-2.46,3.43,3.43,0,0,0-2.3-.67Z" transform="translate(-57.17 -244.85)" style="fill:#383b41"/><path d="M472.86,258.77q13,0,21.75,6.64,10.41,8,10.41,22.31,0,13.42-10.41,21.44Q486,315.79,473,315.8t-21.65-6.64q-10.46-8-10.45-21.88t10.45-21.87Q460,258.91,472.86,258.77Zm.05,10.35q-8.46,0-13.79,5.42a18.87,18.87,0,0,0,0,25.44q5.34,5.46,13.84,5.47A18.42,18.42,0,0,0,486.75,300a17.11,17.11,0,0,0,4.94-12.45c0-5.38-1.65-9.7-4.94-13A19.15,19.15,0,0,0,472.91,269.12Z" transform="translate(-57.17 -244.85)" style="fill:#383b41"/><path d="M529.58,292.16V309.6a3.47,3.47,0,0,0,.68,2.32,5.25,5.25,0,0,0,2.44,1.34v1.37H513.37v-1.37a4.7,4.7,0,0,0,2.41-1.27,3.53,3.53,0,0,0,.71-2.35V264.92a3.43,3.43,0,0,0-.68-2.3,5.34,5.34,0,0,0-2.44-1.32v-1.36H549q10.59,0,16,3.17a12.83,12.83,0,0,1,4.88,5.27,16.56,16.56,0,0,1,1.76,7.67q0,8.16-5.57,12.13t-17,4Zm0-9.91h18.65c3.42,0,5.79-.32,7.13-1q2.92-1.42,2.93-5.23t-2.93-5.22q-2-1-7.13-1H529.58Z" transform="translate(-57.17 -244.85)" style="fill:#383b41"/></g></g></svg>